# xmcd
#
# Track frame offsets:
#	150
#	16729
#	26906
#	46287
#	54397
#	74048
#	92431
#	109662
#	131615
#	148876
#
# Disc length: 2154 seconds
#
# Revision: 1
# Processed by: cddbd v1.5PL3 Copyright (c) Steve Scherf et al.
# Submitted via: CDex 1.50Beta5
#
DISCID=8a08680a
DTITLE=The Chiffons - Parler Chiffons
DYEAR=2003
DGENRE=Pop
TTITLE0=Sweet Dreaming
TTITLE1=AMAZING GRACE
TTITLE2=ぼくらだけにわかること
TTITLE3=野ばら　〜Heidenroslein〜
TTITLE4=Oneway Love
TTITLE5=空の涙
TTITLE6=a Piece of cake
TTITLE7=オレンジ　グラス
TTITLE8=happy-go-lucky.Remix
TTITLE9=なんでかな（ついてない日のうた）〜朝ver.〜
EXTD=
EXTT0=
EXTT1=
EXTT2=
EXTT3=
EXTT4=
EXTT5=
EXTT6=
EXTT7=
EXTT8=
EXTT9=
PLAYORDER=
